<svg width="32" height="32" viewBox="0 0 32 32" fill="none" xmlns="http://www.w3.org/2000/svg">
<path d="M23.2751 2.8866C23.5624 2.27104 24.4377 2.27104 24.725 2.8866L25.5741 4.70597C25.6535 4.87624 25.7904 5.01311 25.9607 5.09257L27.7801 5.94168C28.3956 6.22896 28.3956 7.10427 27.78 7.39155L25.9607 8.24065C25.7904 8.32012 25.6535 8.45698 25.5741 8.62726L24.725 10.4466C24.4377 11.0622 23.5624 11.0622 23.2751 10.4466L22.426 8.62726C22.3465 8.45698 22.2097 8.32012 22.0394 8.24065L20.22 7.39155C19.6045 7.10427 19.6045 6.22896 20.22 5.94168L22.0394 5.09257C22.2097 5.01311 22.3465 4.87624 22.426 4.70597L23.2751 2.8866Z" fill="black"/>
<path d="M13.8675 4.6838C14.4268 3.40554 16.24 3.40554 16.7992 4.6838L19.7678 11.4692C19.9179 11.8122 20.1834 12.0916 20.5182 12.259L25.1379 14.5689C26.3171 15.1585 26.3171 16.8414 25.1379 17.431L20.5182 19.7409C20.1834 19.9083 19.9179 20.1877 19.7678 20.5307L16.7992 27.3161C16.24 28.5943 14.4268 28.5943 13.8675 27.3161L10.8989 20.5307C10.7489 20.1877 10.4834 19.9083 10.1486 19.7409L5.52887 17.431C4.34959 16.8414 4.34959 15.1585 5.52887 14.5689L10.1486 12.259C10.4834 12.0916 10.7489 11.8122 10.8989 11.4692L13.8675 4.6838Z" fill="black"/>
</svg>
