<svg width="32" height="32" viewBox="0 0 32 32" fill="none" xmlns="http://www.w3.org/2000/svg">
<path fill-rule="evenodd" clip-rule="evenodd" d="M10.345 2.66663H21.6551C22.7284 2.66661 23.6142 2.6666 24.3358 2.72555C25.0852 2.78679 25.7742 2.9182 26.4213 3.24793C27.4248 3.75925 28.2407 4.57515 28.7521 5.57868C29.0818 6.22579 29.2132 6.91473 29.2744 7.66419C29.3334 8.38578 29.3334 9.27158 29.3334 10.3449V21.6551C29.3334 22.7283 29.3334 23.6141 29.2744 24.3357C29.2132 25.0852 29.0818 25.7741 28.7521 26.4212C28.2407 27.4248 27.4248 28.2407 26.4213 28.752C25.7742 29.0817 25.0853 29.2131 24.3358 29.2744C23.6142 29.3333 22.7284 29.3333 21.6551 29.3333H10.3449C10.3128 29.3333 10.2808 29.3333 10.2489 29.3333L9.19224 29.3333C8.83172 29.3333 8.47736 29.3334 8.19206 29.3081C8.1814 29.3072 8.17027 29.3062 8.15869 29.3051C7.98595 29.2972 7.82122 29.2872 7.66425 29.2744C6.91479 29.2131 6.22585 29.0817 5.57874 28.752C4.57521 28.2407 3.75931 27.4248 3.24799 26.4212C2.91827 25.7741 2.78685 25.0852 2.72561 24.3357C2.66666 23.6141 2.66667 22.7283 2.66669 21.655V10.3449C2.66667 9.2716 2.66666 8.38579 2.72561 7.66419C2.78685 6.91473 2.91827 6.22579 3.24799 5.57868C3.75931 4.57515 4.57521 3.75925 5.57874 3.24793C6.22585 2.9182 6.91479 2.78679 7.66425 2.72555C8.38585 2.6666 9.27166 2.66661 10.345 2.66663ZM10.4 26.6666C10.2198 26.6666 10.0487 26.6666 9.8859 26.6664L20.7677 15.7846C21.0472 15.505 21.2009 15.3528 21.3198 15.2519C21.3246 15.2478 21.3291 15.2441 21.3334 15.2405C21.3376 15.2441 21.3421 15.2478 21.3469 15.2518C21.4658 15.3528 21.6195 15.505 21.899 15.7846L26.6667 20.5522V21.6C26.6667 22.7421 26.6656 23.5185 26.6166 24.1186C26.5689 24.7031 26.4823 25.0021 26.376 25.2106C26.1204 25.7124 25.7124 26.1203 25.2107 26.376C25.0021 26.4822 24.7032 26.5688 24.1186 26.6166C23.5185 26.6656 22.7421 26.6666 21.6 26.6666H10.4ZM26.6667 16.781L23.7546 13.8689C23.5167 13.6309 23.285 13.3992 23.0727 13.2189C22.8395 13.021 22.5437 12.8083 22.1574 12.6828C21.6218 12.5087 21.0449 12.5087 20.5093 12.6828C20.123 12.8083 19.8272 13.021 19.594 13.2189C19.3817 13.3992 19.15 13.6309 18.9121 13.8689L7.50972 25.2713C7.25475 25.5262 7.00414 25.7767 6.82028 25.9963C6.7635 26.0642 6.68698 26.1579 6.6093 26.2753C6.18995 26.019 5.84835 25.6509 5.624 25.2106C5.51775 25.0021 5.43118 24.7031 5.38342 24.1186C5.33439 23.5185 5.33335 22.7421 5.33335 21.6V10.4C5.33335 9.25785 5.33439 8.48146 5.38342 7.88134C5.43118 7.29679 5.51775 6.99785 5.624 6.78932C5.87967 6.28755 6.28761 5.87961 6.78938 5.62394C6.99791 5.51769 7.29685 5.43112 7.88141 5.38336C8.48152 5.33433 9.25792 5.33329 10.4 5.33329H21.6C22.7421 5.33329 23.5185 5.33433 24.1186 5.38336C24.7032 5.43112 25.0021 5.51769 25.2107 5.62394C25.7124 5.87961 26.1204 6.28755 26.376 6.78932C26.4823 6.99785 26.5689 7.29679 26.6166 7.88134C26.6656 8.48146 26.6667 9.25785 26.6667 10.4V16.781ZM11.3334 9.99996C10.597 9.99996 10 10.5969 10 11.3333C10 12.0697 10.597 12.6666 11.3334 12.6666C12.0697 12.6666 12.6667 12.0697 12.6667 11.3333C12.6667 10.5969 12.0697 9.99996 11.3334 9.99996ZM7.33335 11.3333C7.33335 9.12415 9.12422 7.33329 11.3334 7.33329C13.5425 7.33329 15.3334 9.12415 15.3334 11.3333C15.3334 13.5424 13.5425 15.3333 11.3334 15.3333C9.12422 15.3333 7.33335 13.5424 7.33335 11.3333Z" fill="white" fill-opacity="0.1"/>
</svg>
