<svg width="40" height="40" viewBox="0 0 40 40" fill="none" xmlns="http://www.w3.org/2000/svg">
<g clip-path="url(#clip0_1_316)">
<path fill-rule="evenodd" clip-rule="evenodd" d="M20.0001 5C11.7158 5 5.00008 11.7157 5.00008 20C5.00008 28.2843 11.7158 35 20.0001 35C28.2844 35 35.0001 28.2843 35.0001 20C35.0001 11.7157 28.2844 5 20.0001 5ZM1.66675 20C1.66675 9.87478 9.87486 1.66667 20.0001 1.66667C30.1253 1.66667 38.3334 9.87478 38.3334 20C38.3334 30.1252 30.1253 38.3333 20.0001 38.3333C9.87486 38.3333 1.66675 30.1252 1.66675 20ZM20.4303 13.3739C19.6544 13.2408 18.8565 13.3866 18.1778 13.7854C17.4991 14.1843 16.9835 14.8105 16.7223 15.5531C16.4169 16.4214 15.4653 16.8777 14.597 16.5722C13.7287 16.2668 13.2724 15.3152 13.5779 14.4469C14.1003 12.9617 15.1315 11.7094 16.4889 10.9117C17.8462 10.114 19.4421 9.82235 20.9938 10.0885C22.5455 10.3547 23.953 11.1614 24.9669 12.3659C25.9806 13.5701 26.5355 15.0941 26.5334 16.6682C26.5327 19.2188 24.6416 20.9032 23.2912 21.8034C22.5652 22.2875 21.851 22.6434 21.3249 22.8772C21.0595 22.9952 20.836 23.0847 20.6749 23.146C20.5943 23.1768 20.5289 23.2006 20.4812 23.2175L20.4234 23.2378L20.4049 23.2441L20.3984 23.2463L20.3959 23.2471C20.3954 23.2473 20.3938 23.2478 19.8667 21.6667L20.3938 23.2478C19.5206 23.5389 18.5767 23.067 18.2856 22.1937C17.9946 21.3208 18.4661 20.3772 19.3388 20.0858L19.3645 20.0768C19.3902 20.0677 19.4322 20.0524 19.4883 20.0311C19.6006 19.9883 19.7678 19.9215 19.9711 19.8312C20.3825 19.6483 20.9183 19.3792 21.4422 19.0299C22.5916 18.2637 23.2001 17.4486 23.2001 16.6667L23.2001 16.6642C23.2013 15.877 22.9238 15.1148 22.4168 14.5126C21.9099 13.9103 21.2061 13.5069 20.4303 13.3739ZM18.3334 28.3333C18.3334 27.4129 19.0796 26.6667 20.0001 26.6667H20.0167C20.9372 26.6667 21.6834 27.4129 21.6834 28.3333C21.6834 29.2538 20.9372 30 20.0167 30H20.0001C19.0796 30 18.3334 29.2538 18.3334 28.3333Z" fill="white" fill-opacity="0.85"/>
</g>
<defs>
<clipPath id="clip0_1_316">
<rect width="20" height="20" fill="white" transform="scale(2)"/>
</clipPath>
</defs>
</svg>
